<?xml version="1.0" encoding="UTF-8"?>
<svg width="171px" height="136px" viewBox="0 0 171 136" version="1.1" xmlns="http://www.w3.org/2000/svg" xmlns:xlink="http://www.w3.org/1999/xlink">
    <g id="Page-1" stroke="none" stroke-width="1" fill="none" fill-rule="evenodd">
        <g id="grouparoo" transform="translate(-160.000000, -432.000000)" fill="#29ABE2">
            <g id="Group-24" transform="translate(160.000000, 432.000000)">
                <g id="icon" transform="translate(-0.000200, 0.748100)">
                    <path d="M166.32,29.371 L136.949,-2.84217094e-14 L135.859,1.09 C130.449,6.499 130.449,15.301 135.859,20.711 L137.214,22.066 L137.214,29.359 C137.214,38.879 129.467,46.625 119.948,46.625 L97.436,46.625 C79.414,46.625 64.753,61.287 64.753,79.309 L64.753,101.82 C64.753,111.34 57.007,119.087 47.487,119.087 L13.874,119.087 C6.224,119.087 0,125.31 0,132.962 L0,134.504 L47.487,134.504 C65.508,134.504 80.17,119.843 80.17,101.82 L80.17,79.309 C80.17,69.789 87.916,62.042 97.436,62.042 L119.948,62.042 C135.465,62.042 148.465,51.163 151.786,36.638 L165.23,50.082 L166.32,48.992 C171.73,43.582 171.73,34.781 166.32,29.371" id="Fill-20"></path>
                    <path d="M107.1501,96.7314 L107.1501,98.2734 L137.2141,98.2734 L137.2141,101.8204 C137.2141,111.3394 129.4671,119.0864 119.9481,119.0864 L85.6851,119.0864 C82.9461,125.1224 78.8231,130.3974 73.7161,134.5034 L119.9481,134.5034 C137.9701,134.5034 152.6311,119.8424 152.6311,101.8204 L152.6311,82.8554 L121.0241,82.8554 C113.3741,82.8554 107.1501,89.0804 107.1501,96.7314" id="Fill-22"></path>
                </g>
            </g>
        </g>
    </g>
</svg>
