<?xml version="1.0" standalone="no"?>
<!DOCTYPE svg PUBLIC "-//W3C//DTD SVG 20010904//EN"
 "http://www.w3.org/TR/2001/REC-SVG-20010904/DTD/svg10.dtd">
<svg version="1.0" xmlns="http://www.w3.org/2000/svg"
 width="500.000000pt" height="500.000000pt" viewBox="0 0 500.000000 500.000000"
 preserveAspectRatio="xMidYMid meet">
<metadata>
Created by potrace 1.14, written by Peter Selinger 2001-2017
</metadata>
<g transform="translate(0.000000,500.000000) scale(0.100000,-0.100000)"
fill="#000000" stroke="none">
<path d="M3715 4715 c-78 -97 -114 -187 -120 -305 -7 -131 30 -242 117 -351
l44 -54 -2 -161 c-2 -185 -15 -252 -72 -364 -45 -90 -143 -192 -224 -233 -106
-54 -129 -56 -562 -57 -482 -1 -481 -1 -614 -46 -228 -76 -410 -227 -545 -453
-15 -25 -32 -56 -37 -68 -5 -13 -19 -42 -30 -65 -20 -41 -63 -190 -74 -253
-15 -83 -19 -204 -20 -609 -2 -427 -3 -443 -24 -501 -29 -78 -82 -157 -150
-224 -59 -57 -197 -151 -223 -151 -8 0 -20 -5 -25 -10 -17 -17 -136 -23 -194
-11 -151 32 -251 118 -342 292 -98 187 -118 216 -158 234 -108 49 -220 -64
-207 -209 7 -81 75 -283 137 -405 45 -91 137 -219 201 -282 69 -67 195 -133
300 -155 103 -21 144 -25 214 -21 101 8 135 14 209 38 152 51 258 122 396 266
179 185 265 344 316 588 11 51 16 223 18 625 2 239 6 446 9 459 57 215 191
368 370 422 66 21 93 22 496 24 348 2 439 5 497 18 184 41 326 120 464 257
143 141 214 259 279 457 l38 114 51 -58 c27 -32 59 -67 69 -79 10 -11 50 -56
90 -100 39 -43 80 -88 90 -100 61 -70 81 -91 91 -98 30 -18 122 130 147 235
43 183 -4 332 -155 500 -36 40 -72 80 -80 89 -36 41 -140 157 -161 181 -13 14
-55 61 -94 104 -38 43 -81 90 -94 104 -13 14 -53 59 -89 99 -36 40 -74 83 -86
95 -12 13 -52 59 -91 102 -38 43 -86 96 -105 117 l-36 39 -29 -36z"/>
<path d="M3144 1954 c-171 -59 -285 -227 -293 -430 l-2 -61 453 1 454 1 -2
-107 c-4 -168 -46 -290 -139 -406 -69 -85 -194 -162 -292 -178 -21 -4 -280 -7
-576 -8 l-538 -1 -42 -85 c-81 -161 -149 -259 -257 -368 l-61 -63 768 3 c840
4 790 1 952 65 267 105 485 346 586 647 55 164 59 211 60 626 l0 385 -503 1
c-499 1 -503 1 -568 -22z"/>
</g>
</svg>
