<svg width="1360" height="272" viewBox="0 0 1360 272" fill="none" xmlns="http://www.w3.org/2000/svg">
<g clip-path="url(#clip0_24_80)">
<path fill-rule="evenodd" clip-rule="evenodd" d="M241.072 -12.75L294.385 46.6457C304.205 57.5861 304.205 75.384 294.385 86.3244L292.406 88.5286L268.003 61.3414C261.975 90.7147 238.378 112.715 210.212 112.715H169.35C152.069 112.715 138.009 128.381 138.009 147.633V193.156C138.009 221.489 122.7 236.402 114.161 244.719C114.047 244.83 113.935 244.94 113.823 245.048C105.358 253.299 92.3075 259.192 79.6097 259.192C66.9118 259.192 55.9776 253.692 51.7449 249.763C47.5123 245.834 41.8141 238.369 40.1052 235.226C37.7556 230.904 33.4036 222.653 30.2291 209.688C27.0547 196.722 40.4579 186.9 46.8069 198.686C48.4351 201.709 49.7385 204.241 50.854 206.408C54.0882 212.69 55.7426 215.904 59.152 219.117C63.7374 223.439 70.7917 226.975 79.6097 226.582C88.4276 226.189 110.025 212.408 110.025 193.156V147.633C110.025 111.188 136.637 81.5377 169.35 81.5377H210.212C227.491 81.5377 241.553 65.8733 241.553 46.6214V31.8731L239.093 29.1329C229.273 18.1925 229.273 0.392642 239.093 -10.5457L241.072 -12.75ZM186.982 185.984V182.865C186.982 167.393 198.28 154.805 212.166 154.805H269.537V193.157C269.537 229.602 242.925 259.25 210.212 259.25H126.294C135.564 250.947 143.048 240.279 148.02 228.073H210.212C227.491 228.073 241.553 212.406 241.553 193.157V185.984H186.982Z" fill="#2FE5A4"/>
<path d="M489.63 136.286H516.375C511.917 108.561 487.294 89.25 455.243 89.25C417.318 89.25 388.875 116.423 388.875 161.941C388.875 206.632 416.043 234.358 456.021 234.358C491.893 234.358 517.578 211.874 517.578 175.459V158.493H458.781V178.493H492.175C491.753 198.632 477.955 211.391 456.163 211.391C431.893 211.391 415.265 193.666 415.265 161.666C415.265 129.872 432.176 112.216 455.596 112.216C473.072 112.216 484.959 121.32 489.63 136.286Z" fill="black"/>
<path d="M537.763 232.426H563.376V170.148C563.376 156.7 573.778 147.182 587.858 147.182C592.174 147.182 597.55 147.941 599.745 148.631V125.665C597.41 125.251 593.377 124.975 590.546 124.975C578.094 124.975 567.692 131.872 563.731 144.148H562.598V126.492H537.763V232.426Z" fill="black"/>
<path d="M655.624 234.496C687.465 234.496 707.701 212.632 707.701 179.873C707.701 147.044 687.465 125.113 655.624 125.113C623.785 125.113 603.549 147.044 603.549 179.873C603.549 212.632 623.785 234.496 655.624 234.496ZM655.766 214.494C638.148 214.494 629.516 199.184 629.516 179.804C629.516 160.424 638.148 144.906 655.766 144.906C673.102 144.906 681.734 160.424 681.734 179.804C681.734 199.184 673.102 214.494 655.766 214.494Z" fill="black"/>
<path d="M794.644 187.873C794.644 204.011 782.827 212.011 771.507 212.011C759.195 212.011 750.988 203.528 750.988 190.08V126.492H725.373V193.942C725.373 219.391 740.233 233.805 761.6 233.805C777.873 233.805 789.338 225.46 794.289 213.598H795.422V232.426H820.257V126.492H794.644V187.873Z" fill="black"/>
<path d="M842.528 272.151H868.141V215.736H869.203C873.237 223.46 881.656 234.287 900.335 234.287C925.949 234.287 945.123 214.494 945.123 179.597C945.123 144.286 925.382 125.113 900.265 125.113C881.091 125.113 873.094 136.354 869.203 144.01H867.718V126.492H842.528V272.151ZM867.646 179.459C867.646 158.907 876.703 145.596 893.188 145.596C910.241 145.596 919.016 159.734 919.016 179.459C919.016 199.322 910.099 213.805 893.188 213.805C876.845 213.805 867.646 200.011 867.646 179.459Z" fill="black"/>
<path d="M994.266 234.564C1011.32 234.564 1021.51 226.771 1026.18 217.874H1027.03V232.426H1051.65V161.528C1051.65 133.527 1028.23 125.113 1007.5 125.113C984.642 125.113 967.096 135.044 961.435 154.355L985.35 157.665C987.897 150.424 995.114 144.217 1007.64 144.217C1019.52 144.217 1026.03 150.148 1026.03 160.562V160.976C1026.03 168.148 1018.32 168.493 999.147 170.493C978.063 172.7 957.897 178.838 957.897 202.701C957.897 223.529 973.535 234.564 994.266 234.564ZM1000.92 216.219C990.233 216.219 982.591 211.46 982.591 202.287C982.591 192.701 991.151 188.701 1002.62 187.114C1009.34 186.218 1022.78 184.563 1026.1 181.942V194.425C1026.1 206.218 1016.34 216.219 1000.92 216.219Z" fill="black"/>
<path d="M1073.34 232.426H1098.95V170.148C1098.95 156.7 1109.35 147.182 1123.43 147.182C1127.75 147.182 1133.12 147.941 1135.32 148.631V125.665C1132.98 125.251 1128.95 124.975 1126.12 124.975C1113.67 124.975 1103.27 131.872 1099.3 144.148H1098.17V126.492H1073.34V232.426Z" fill="black"/>
<path d="M1191.2 234.496C1223.04 234.496 1243.27 212.632 1243.27 179.873C1243.27 147.044 1223.04 125.113 1191.2 125.113C1159.36 125.113 1139.12 147.044 1139.12 179.873C1139.12 212.632 1159.36 234.496 1191.2 234.496ZM1191.34 214.494C1173.72 214.494 1165.09 199.184 1165.09 179.804C1165.09 160.424 1173.72 144.906 1191.34 144.906C1208.67 144.906 1217.31 160.424 1217.31 179.804C1217.31 199.184 1208.67 214.494 1191.34 214.494Z" fill="black"/>
<path d="M1308.35 234.496C1340.19 234.496 1360.43 212.632 1360.43 179.873C1360.43 147.044 1340.19 125.113 1308.35 125.113C1276.51 125.113 1256.28 147.044 1256.28 179.873C1256.28 212.632 1276.51 234.496 1308.35 234.496ZM1308.49 214.494C1290.88 214.494 1282.24 199.184 1282.24 179.804C1282.24 160.424 1290.88 144.906 1308.49 144.906C1325.83 144.906 1334.46 160.424 1334.46 179.804C1334.46 199.184 1325.83 214.494 1308.49 214.494Z" fill="black"/>
</g>
<defs>
<clipPath id="clip0_24_80">
<rect width="1360" height="272" fill="white"/>
</clipPath>
</defs>
</svg>
