<svg width="1000" height="1000" viewBox="0 0 1000 1000" fill="none" xmlns="http://www.w3.org/2000/svg">
<path fill-rule="evenodd" clip-rule="evenodd" d="M776.919 0L972.923 218.366C1009.03 258.589 1009.03 324.022 972.923 364.244L965.649 372.348L875.932 272.395C853.77 380.385 767.016 461.268 663.465 461.268H513.234C449.703 461.268 398.012 518.865 398.012 589.644V757.008C398.012 861.174 341.726 916 310.335 946.577C309.917 946.985 309.503 947.388 309.093 947.787C277.971 978.121 229.991 999.788 183.308 999.788C136.624 999.788 96.4249 979.565 80.8638 965.121C65.3027 950.676 44.3533 923.231 38.0707 911.675C29.4323 895.786 13.4323 865.452 1.76146 817.785C-9.90936 770.118 39.3675 734.006 62.7091 777.34C68.6951 788.453 73.4872 797.761 77.5883 805.727C89.4788 828.824 95.5611 840.638 108.096 852.452C124.954 868.341 150.889 881.342 183.308 879.897C215.727 878.453 295.128 827.787 295.128 757.008V589.644C295.128 455.654 392.966 346.646 513.234 346.646H663.465C726.989 346.646 778.687 289.056 778.687 218.277V164.056L769.645 153.981C733.542 113.759 733.542 48.3185 769.645 8.10389L776.919 0ZM578.059 730.639V719.174C578.059 662.291 619.594 616.01 670.646 616.01H881.571V757.01C881.571 890.999 783.733 1000 663.465 1000H354.941C389.022 969.473 416.537 930.255 434.815 885.378H663.465C726.989 885.378 778.688 827.781 778.688 757.01V730.639H578.059Z" fill="#2FE5A4"/>
</svg>
