<?xml version="1.0" encoding="UTF-8"?>
<svg width="680px" height="136px" viewBox="0 0 680 136" version="1.1" xmlns="http://www.w3.org/2000/svg" xmlns:xlink="http://www.w3.org/1999/xlink">
    <g id="Page-1" stroke="none" stroke-width="1" fill="none" fill-rule="evenodd">
        <g id="grouparoo" transform="translate(-160.000000, -432.000000)">
            <g id="Group-24" transform="translate(160.000000, 432.000000)">
                <g id="wordmark" transform="translate(186.696189, 50.710000)" fill="#FFFFFF">
                    <path d="M60.1754112,55.497 C53.8494112,62.861 43.0594112,68.153 33.3084112,68.153 C12.8734112,68.153 -0.40458882,54.148 0.00941117978,33.506 C0.00941117978,13.382 13.4944112,2.84217094e-14 33.6194112,2.84217094e-14 C42.7494112,2.84217094e-14 52.2934112,3.319 58.4124112,9.855 C64.3254112,16.077 55.6134112,23.236 49.5954112,16.908 C45.1334112,12.24 39.2224112,10.269 33.6194112,10.269 C20.6544112,10.269 11.9384112,19.813 11.9384112,33.816 C12.1484112,47.717 20.6544112,57.675 33.4124112,57.675 C39.4294112,57.675 45.9654112,54.772 50.0094112,50.103 L50.0094112,39.521 L34.8644112,39.521 C30.9234112,39.521 29.1604112,37.032 29.1604112,34.542 C29.1604112,31.847 31.0274112,29.252 34.8644112,29.252 L55.5094112,29.252 C60.2794112,29.252 61.7314112,31.535 61.7314112,34.854 L61.7314112,51.14 C61.7314112,52.488 61.4204112,54.148 60.1754112,55.497" id="Fill-2"></path>
                    <path d="M102.695911,19.3964 C102.695911,22.7164 100.308911,24.7904 96.5749112,24.7904 C87.8619112,24.7904 84.7499112,31.4294 84.7499112,42.1154 L84.7499112,61.8254 C84.7499112,64.9374 82.1549112,67.1154 79.0429112,67.1154 C75.4129112,67.1154 73.0279112,64.9374 73.0279112,61.8254 L73.0279112,19.6044 C73.0279112,16.2844 76.1399112,14.3134 79.0429112,14.3134 C81.9479112,14.3134 84.7499112,16.1814 84.7499112,19.6044 L84.7499112,20.2274 C87.7579112,16.1814 91.8029112,14.3134 96.5749112,14.3134 C100.308911,14.3134 102.695911,15.8704 102.695911,19.3964" id="Fill-4"></path>
                    <path d="M145.014211,40.9736 C145.014211,30.8076 138.893211,23.6516 129.558211,23.6516 C120.221211,23.6516 114.102211,30.8076 114.102211,40.9736 C114.102211,50.9326 120.221211,57.7786 129.558211,57.7786 C138.893211,57.7786 145.014211,50.9326 145.014211,40.9736 M157.152211,40.9736 C156.943211,57.2606 145.845211,68.1536 129.558211,68.1536 C113.271211,68.1536 102.171211,57.2606 101.964211,40.9736 C101.964211,24.4796 113.064211,13.2786 129.558211,13.2786 C146.156211,13.2786 157.152211,24.4796 157.152211,40.9736" id="Fill-6"></path>
                    <path d="M215.751111,20.124 L215.751111,61.825 C215.751111,65.249 212.639111,67.115 209.839111,67.115 C206.830111,67.115 203.925111,65.249 203.925111,61.722 L203.925111,61.306 C198.221111,66.805 191.893111,68.153 186.603111,68.153 C172.183111,68.153 163.780111,58.402 163.780111,42.944 L163.780111,20.124 C163.780111,16.908 165.958111,14.314 169.694111,14.314 C173.221111,14.314 175.605111,16.908 175.605111,20.124 L175.605111,43.153 C175.605111,52.178 179.547111,57.778 188.366111,57.778 C193.656111,57.778 203.925111,52.074 203.925111,39.937 L203.925111,20.124 C203.925111,16.805 205.896111,14.314 209.735111,14.314 C213.366111,14.314 215.751111,16.805 215.751111,20.124" id="Fill-8"></path>
                    <path d="M268.232511,40.249 C268.232511,30.394 262.424511,23.755 253.711511,23.755 C248.211511,23.755 242.299511,26.764 239.706511,31.95 L239.706511,49.169 C241.885511,54.562 248.315511,57.675 254.643511,57.675 C262.838511,57.675 268.232511,50.621 268.232511,40.249 M280.057511,40.145 C280.057511,56.847 269.996511,68.153 254.954511,68.153 C250.288511,68.153 244.270511,66.494 239.706511,63.382 L239.706511,79.252 C239.706511,82.675 236.800511,84.542 233.897511,84.542 C230.888511,84.542 227.983511,82.675 227.983511,79.252 L227.983511,19.604 C227.983511,16.285 230.264511,14.314 234.001511,14.314 C237.113511,14.314 238.980511,15.56 239.498511,17.944 C244.270511,14.521 249.871511,13.278 254.540511,13.278 C269.892511,13.278 280.057511,24.169 280.057511,40.145" id="Fill-10"></path>
                    <path d="M326.835011,49.6894 L326.835011,31.7424 C324.240011,26.6604 318.327011,23.7544 312.933011,23.7544 C304.220011,23.7544 298.409011,30.8074 298.409011,40.6634 C298.409011,50.9324 303.806011,57.6744 312.001011,57.6744 C318.119011,57.6744 324.448011,54.9794 326.835011,49.6894 M338.660011,19.7084 L338.660011,61.7214 C338.660011,64.9374 336.273011,67.1154 332.747011,67.1154 C329.323011,67.1154 327.353011,65.3524 326.939011,62.7574 C322.167011,66.4944 315.941011,68.1534 310.755011,68.1534 C295.714011,68.1534 286.584011,57.2604 286.584011,40.5594 C286.584011,24.4794 296.854011,13.2784 312.105011,13.2784 C316.564011,13.2784 322.374011,14.9384 326.939011,18.4644 C327.457011,15.9734 329.427011,14.3144 332.747011,14.3144 C336.273011,14.3144 338.660011,16.4944 338.660011,19.7084" id="Fill-12"></path>
                    <path d="M379.938611,19.3964 C379.938611,22.7164 377.550611,24.7904 373.817611,24.7904 C365.103611,24.7904 361.991611,31.4294 361.991611,42.1154 L361.991611,61.8254 C361.991611,64.9374 359.397611,67.1154 356.285611,67.1154 C352.654611,67.1154 350.269611,64.9374 350.269611,61.8254 L350.269611,19.6044 C350.269611,16.2844 353.381611,14.3134 356.285611,14.3134 C359.190611,14.3134 361.991611,16.1814 361.991611,19.6044 L361.991611,20.2274 C365.000611,16.1814 369.044611,14.3134 373.817611,14.3134 C377.550611,14.3134 379.938611,15.8704 379.938611,19.3964" id="Fill-14"></path>
                    <path d="M422.255911,40.9736 C422.255911,30.8076 416.134911,23.6516 406.800911,23.6516 C397.463911,23.6516 391.344911,30.8076 391.344911,40.9736 C391.344911,50.9326 397.463911,57.7786 406.800911,57.7786 C416.134911,57.7786 422.255911,50.9326 422.255911,40.9736 M434.394911,40.9736 C434.185911,57.2606 423.086911,68.1536 406.800911,68.1536 C390.513911,68.1536 379.412911,57.2606 379.205911,40.9736 C379.205911,24.4796 390.306911,13.2786 406.800911,13.2786 C423.398911,13.2786 434.394911,24.4796 434.394911,40.9736" id="Fill-16"></path>
                    <path d="M481.167111,40.9736 C481.167111,30.8076 475.049111,23.6516 465.712111,23.6516 C456.375111,23.6516 450.256111,30.8076 450.256111,40.9736 C450.256111,50.9326 456.375111,57.7786 465.712111,57.7786 C475.049111,57.7786 481.167111,50.9326 481.167111,40.9736 M493.304111,40.9736 C493.097111,57.2606 481.998111,68.1536 465.712111,68.1536 C449.425111,68.1536 438.324111,57.2606 438.117111,40.9736 C438.117111,24.4796 449.218111,13.2786 465.712111,13.2786 C482.310111,13.2786 493.304111,24.4796 493.304111,40.9736" id="Fill-18"></path>
                </g>
                <g id="icon" transform="translate(-0.000200, 0.748100)" fill="#29ABE2">
                    <path d="M166.32,29.371 L136.949,-2.84217094e-14 L135.859,1.09 C130.449,6.499 130.449,15.301 135.859,20.711 L137.214,22.066 L137.214,29.359 C137.214,38.879 129.467,46.625 119.948,46.625 L97.436,46.625 C79.414,46.625 64.753,61.287 64.753,79.309 L64.753,101.82 C64.753,111.34 57.007,119.087 47.487,119.087 L13.874,119.087 C6.224,119.087 0,125.31 0,132.962 L0,134.504 L47.487,134.504 C65.508,134.504 80.17,119.843 80.17,101.82 L80.17,79.309 C80.17,69.789 87.916,62.042 97.436,62.042 L119.948,62.042 C135.465,62.042 148.465,51.163 151.786,36.638 L165.23,50.082 L166.32,48.992 C171.73,43.582 171.73,34.781 166.32,29.371" id="Fill-20"></path>
                    <path d="M107.1501,96.7314 L107.1501,98.2734 L137.2141,98.2734 L137.2141,101.8204 C137.2141,111.3394 129.4671,119.0864 119.9481,119.0864 L85.6851,119.0864 C82.9461,125.1224 78.8231,130.3974 73.7161,134.5034 L119.9481,134.5034 C137.9701,134.5034 152.6311,119.8424 152.6311,101.8204 L152.6311,82.8554 L121.0241,82.8554 C113.3741,82.8554 107.1501,89.0804 107.1501,96.7314" id="Fill-22"></path>
                </g>
            </g>
        </g>
    </g>
</svg>
