<svg width="640" height="128" viewBox="0 0 640 128" fill="none" xmlns="http://www.w3.org/2000/svg">
<g clip-path="url(#clip0_14:128)">
<path fill-rule="evenodd" clip-rule="evenodd" d="M113.446 -6L138.534 21.9509C143.155 27.0993 143.155 35.4748 138.534 40.6232L137.603 41.6605L126.119 28.8665C123.283 42.6893 112.178 53.0423 98.9235 53.0423H79.694C71.562 53.0423 64.9455 60.4147 64.9455 69.4744V90.897C64.9455 104.23 57.741 111.248 53.7229 115.162C53.6694 115.214 53.6163 115.266 53.5639 115.317C49.5803 119.199 43.4388 121.973 37.4634 121.973C31.4879 121.973 26.3424 119.384 24.3506 117.535C22.3587 115.687 19.6772 112.174 18.8731 110.694C17.7673 108.661 15.7193 104.778 14.2255 98.6765C12.7316 92.575 19.039 87.9527 22.0268 93.4995C22.793 94.922 23.4064 96.1134 23.9313 97.1331C25.4533 100.089 26.2318 101.602 27.8362 103.114C29.9941 105.148 33.3138 106.812 37.4634 106.627C41.613 106.442 51.7764 99.9567 51.7764 90.897V69.4744C51.7764 52.3238 64.2997 38.3707 79.694 38.3707H98.9235C107.055 38.3707 113.672 30.9992 113.672 21.9395V14.9991L112.515 13.7096C107.893 8.56119 107.893 0.184772 112.515 -4.9627L113.446 -6ZM87.9916 87.5217V86.0543C87.9916 78.7732 93.3081 72.8492 99.8426 72.8492H126.841V90.8972C126.841 108.048 114.318 122 98.9235 122H59.4325C63.7949 118.093 67.3167 113.073 69.6563 107.328H98.9235C107.055 107.328 113.672 99.956 113.672 90.8972V87.5217H87.9916Z" fill="#29ABE2"/>
<path d="M230.414 64.1344H243C240.902 51.0874 229.315 42 214.232 42C196.385 42 183 54.7873 183 76.2077C183 97.2386 195.785 110.286 214.598 110.286C231.479 110.286 243.566 99.7052 243.566 82.5689V74.5849H215.897V83.9969H231.612C231.413 93.4738 224.92 99.478 214.665 99.478C203.244 99.478 195.419 91.137 195.419 76.0779C195.419 61.116 203.377 52.8075 214.398 52.8075C222.622 52.8075 228.216 57.0916 230.414 64.1344Z" fill="white"/>
<path d="M253.065 109.377H265.118V80.0698C265.118 73.7411 270.013 69.2623 276.639 69.2623C278.67 69.2623 281.2 69.6193 282.233 69.9438V59.1363C281.134 58.9415 279.236 58.8117 277.904 58.8117C272.044 58.8117 267.149 62.0572 265.285 67.8343H264.752V59.5257H253.065V109.377Z" fill="white"/>
<path d="M308.529 110.351C323.513 110.351 333.036 100.062 333.036 84.646C333.036 69.1974 323.513 58.8766 308.529 58.8766C293.546 58.8766 284.023 69.1974 284.023 84.646C284.023 100.062 293.546 110.351 308.529 110.351ZM308.596 100.938C300.305 100.938 296.243 93.7335 296.243 84.6136C296.243 75.4937 300.305 68.1913 308.596 68.1913C316.754 68.1913 320.816 75.4937 320.816 84.6136C320.816 93.7335 316.754 100.938 308.596 100.938Z" fill="white"/>
<path d="M373.95 88.4108C373.95 96.0053 368.389 99.7701 363.062 99.7701C357.268 99.7701 353.406 95.7781 353.406 89.4494V59.5257H341.352V91.2669C341.352 103.243 348.345 110.026 358.4 110.026C366.058 110.026 371.453 106.099 373.783 100.517H374.316V109.377H386.003V59.5257H373.95V88.4108Z" fill="white"/>
<path d="M396.484 128.071H408.537V101.523H409.037C410.935 105.158 414.897 110.253 423.687 110.253C435.741 110.253 444.764 100.938 444.764 84.5162C444.764 67.8992 435.474 58.8766 423.654 58.8766C414.631 58.8766 410.868 64.1668 409.037 67.7693H408.338V59.5257H396.484V128.071ZM408.304 84.4513C408.304 74.7797 412.566 68.5158 420.324 68.5158C428.349 68.5158 432.478 75.1691 432.478 84.4513C432.478 93.7984 428.282 100.614 420.324 100.614C412.633 100.614 408.304 94.1229 408.304 84.4513Z" fill="white"/>
<path d="M467.89 110.383C475.914 110.383 480.709 106.716 482.906 102.529H483.306V109.377H494.893V76.013C494.893 62.8362 483.872 58.8766 474.116 58.8766C463.361 58.8766 455.104 63.5502 452.44 72.6376L463.694 74.1955C464.893 70.7877 468.289 67.8667 474.183 67.8667C479.776 67.8667 482.84 70.6579 482.84 75.5586V75.7533C482.84 79.1286 479.21 79.2909 470.187 80.2321C460.265 81.2707 450.775 84.1592 450.775 95.3887C450.775 105.19 458.134 110.383 467.89 110.383ZM471.019 101.75C465.992 101.75 462.396 99.5105 462.396 95.1939C462.396 90.6827 466.424 88.8003 471.819 88.0538C474.982 87.6319 481.308 86.853 482.873 85.6197V91.4941C482.873 97.0439 478.278 101.75 471.019 101.75Z" fill="white"/>
<path d="M505.099 109.377H517.153V80.0698C517.153 73.7411 522.047 69.2623 528.673 69.2623C530.704 69.2623 533.235 69.6193 534.267 69.9438V59.1363C533.168 58.9415 531.27 58.8117 529.939 58.8117C524.078 58.8117 519.184 62.0572 517.319 67.8343H516.786V59.5257H505.099V109.377Z" fill="white"/>
<path d="M560.564 110.351C575.547 110.351 585.07 100.062 585.07 84.646C585.07 69.1974 575.547 58.8766 560.564 58.8766C545.581 58.8766 536.058 69.1974 536.058 84.646C536.058 100.062 545.581 110.351 560.564 110.351ZM560.631 100.938C552.34 100.938 548.278 93.7335 548.278 84.6136C548.278 75.4937 552.34 68.1913 560.631 68.1913C568.788 68.1913 572.85 75.4937 572.85 84.6136C572.85 93.7335 568.788 100.938 560.631 100.938Z" fill="white"/>
<path d="M615.696 110.351C630.679 110.351 640.202 100.062 640.202 84.646C640.202 69.1974 630.679 58.8766 615.696 58.8766C600.712 58.8766 591.19 69.1974 591.19 84.646C591.19 100.062 600.712 110.351 615.696 110.351ZM615.762 100.938C607.471 100.938 603.409 93.7335 603.409 84.6136C603.409 75.4937 607.471 68.1913 615.762 68.1913C623.92 68.1913 627.982 75.4937 627.982 84.6136C627.982 93.7335 623.92 100.938 615.762 100.938Z" fill="white"/>
</g>
<defs>
<clipPath id="clip0_14:128">
<rect width="640" height="128" fill="white"/>
</clipPath>
</defs>
</svg>
