<?xml version="1.0" encoding="utf-8"?>
<!-- Generator: Adobe Illustrator 23.0.3, SVG Export Plug-In . SVG Version: 6.00 Build 0)  -->
<svg version="1.1" id="Layer_1" xmlns="http://www.w3.org/2000/svg" xmlns:xlink="http://www.w3.org/1999/xlink" x="0px" y="0px"
	 viewBox="0 0 600 600" style="enable-background:new 0 0 600 600;" xml:space="preserve">
<style type="text/css">
	.st0{fill:#5B6670;}
	.st1{fill:#00B2E5;}
	.st2{fill:#FF4A00;}
	.st3{fill:#2684FF;}
	.st4{fill:url(#SVGID_1_);}
	.st5{fill:url(#SVGID_2_);}
	.st6{fill:#4687F7;}
	.st7{fill:#00A1E0;}
	.st8{fill:#FFFFFF;}
	.st9{fill:#11373E;}
	.st10{fill:#F7AA06;}
	.st11{fill:#E2740B;}
</style>
<g>
	<g transform="translate(1.034 123.087)">
		<ellipse class="st6" cx="109.7" cy="384" rx="65.6" ry="65.6"/>
		<ellipse class="st6" cx="346.5" cy="384.7" rx="46.4" ry="46.4"/>
		<ellipse class="st6" cx="541.8" cy="384.7" rx="21.1" ry="21.1"/>
	</g>
	<path class="st6" d="M531.8,334.6c-18.4,0-32.1-14.3-32.1-32.1V166c0-47.1-22.5-83.2-73-83.2s-81.2,38.9-81.2,83.9v135.8
		c0,17.7-12.3,32.1-32.1,32.1c-19.1,0-32.1-14.3-32.1-32.1V166c0-47.1-24.6-83.2-75.1-83.2c-51.9,0-79.1,38.9-79.1,83.9v135.8
		c0,17.7-13,32.1-32.1,32.1c-18.4,0-32.1-14.3-32.1-32.1V60.3c0-19.1,12.3-32.7,32.1-32.7c21.8,0,32.1,15,32.1,32.7v21.8
		c18.4-36.2,55.9-57.3,96.2-57.3c49.1,0,86,24.6,104.4,60.7c26.6-40.9,65.5-60.7,113.9-60.7c82.6,0,122.1,56.6,122.1,136.5v141.2
		C563.9,320.3,550.9,334.6,531.8,334.6L531.8,334.6z"/>
</g>
</svg>
